<?xml version="1.0" encoding="UTF-8"?><svg id="Layer_1" xmlns="http://www.w3.org/2000/svg" viewBox="0 0 260.80273 38.20068"><defs><style>.cls-1{fill:#fffc00;}</style></defs><path class="cls-1" d="M23.59375,19.06104l-.50879,10.58984H0v-2.0332h2.37207c.62109,0,1.10059-.16992,1.43945-.50781.33887-.33984.50879-.81934.50879-1.44043V3.98145c0-.62109-.16992-1.10156-.50879-1.44043s-.81836-.50781-1.43945-.50781H0V0h22.44922l.25488,9.2334h-1.7793l-.50879-2.11816c-.31055-1.35547-.68457-2.38574-1.12207-3.0918s-1.0166-1.21387-1.73633-1.52441c-.7207-.31055-1.72949-.46582-3.0293-.46582h-4.3623c-.62109,0-1.10156.16895-1.44043.50781s-.50879.81934-.50879,1.44043v9.2334h2.24512c1.1582,0,2.04785-.14746,2.66895-.44434s1.07324-.76953,1.35547-1.41895.46582-1.56738.55078-2.75293l.12695-1.86426h1.86328v15.0376h-1.86328l-.12695-1.82129c-.08496-1.21387-.26855-2.15332-.55078-2.81689-.28223-.66406-.73438-1.14355-1.35547-1.44043s-1.51074-.44531-2.66895-.44531h-2.24512v10.42139c0,.62109.16992,1.10059.50879,1.44043.33887.33789.81934.50781,1.44043.50781h4.61719c1.46777,0,2.62598-.19043,3.47266-.57227.84766-.38086,1.50391-1.02344,1.96973-1.92676s.84082-2.20312,1.12305-3.89746l.38086-2.16016h1.86426Z"/><path class="cls-1" d="M54.76855,29.65088h-12.70801v-2.0332h2.37207c1.21484,0,1.82129-.42383,1.82129-1.27051,0-.25488-.05566-.53711-.16895-.84766l-1.90625-5.25195h-9.7002l-1.69434,5.04004c-.11328.31055-.16895.62207-.16895.93262,0,.93164.56445,1.39746,1.69434,1.39746h2.0752v2.0332h-11.01367v-2.0332h.50879c1.35547,0,2.37891-.20508,3.07129-.61426.69141-.40918,1.2207-1.15039,1.58789-2.22363L39.18066,0h1.52441l9.44629,25.07666c.36719.93164.86816,1.58789,1.50391,1.96875.63477.38184,1.50293.57227,2.60449.57227h.50879v2.0332ZM35.19824,18.21436h8.26074l-4.06641-11.14111h-.42383l-3.77051,11.14111Z"/><path class="cls-1" d="M75.05762,23.93213v-3.0918c0-2.11816-.4668-3.62939-1.39844-4.53271s-2.35742-1.35547-4.27832-1.35547h-4.27832v10.71729c0,.62109.16992,1.10059.50879,1.44043.33887.33789.81934.50781,1.44043.50781h3.72754v2.0332h-13.89355v-2.0332h2.37207c.62109,0,1.10059-.16992,1.43945-.50781.33887-.33984.50879-.81934.50879-1.44043V3.98145c0-.62109-.16992-1.10156-.50879-1.44043s-.81836-.50781-1.43945-.50781h-2.37207V0h13.08887c2.06152,0,3.86816.31738,5.42188.95215,1.55273.63574,2.74609,1.49023,3.5791,2.56348.83301,1.07227,1.24902,2.23047,1.24902,3.47266,0,1.72266-.55078,3.10645-1.65137,4.15137-1.10156,1.04492-2.64062,1.94824-4.61719,2.71094v.42383c1.10156.33887,1.97656.94629,2.62598,1.82129s1.22852,2.20361,1.73633,3.98193l1.69434,6.01465c.2832,1.04492.81934,1.56738,1.61035,1.56738.98828,0,1.48242-1.15723,1.48242-3.47266v-2.45703h2.11816v2.45703c0,2.00488-.375,3.47266-1.12305,4.40527-.74805.93164-1.92676,1.39746-3.53711,1.39746-1.77832,0-3.1416-.55762-4.08691-1.67285-.94629-1.11621-1.41895-2.57715-1.41895-4.38477ZM76.07422,8.1748v-1.39746c0-1.55371-.55078-2.73242-1.65234-3.53711s-2.62598-1.20703-4.5752-1.20703h-2.79492c-.67773,0-1.17188.14746-1.48242.44434s-.4668.79785-.4668,1.50391v8.9375h4.74414c4.15137,0,6.22754-1.58105,6.22754-4.74414Z"/><path class="cls-1" d="M87.25586,27.61768h2.37207c.62109,0,1.10059-.16992,1.43945-.50781.33887-.33984.50879-.81934.50879-1.44043V3.98145c0-.62109-.16992-1.10156-.50879-1.44043s-.81836-.50781-1.43945-.50781h-2.37207V0h12.53809v2.0332h-2.37207c-.62109,0-1.10156.16895-1.44043.50781s-.50879.81934-.50879,1.44043v21.68799c0,1.29883.65039,1.94824,1.94922,1.94824h4.06641c1.32715,0,2.33691-.16211,3.02832-.4873.69238-.32422,1.22852-.86816,1.60938-1.63086.38184-.7627.72754-1.91992,1.03809-3.47363l.67773-3.38867h2.0332l-.33887,11.01367h-22.28027v-2.0332Z"/><path class="cls-1" d="M125.03906,29.78564l-1.21484,5.80469h7.55957l-.49512,2.16016h-14.62402l.4502-2.16016h3.95996l5.5791-26.27881h-4.13965l.4502-2.16016h7.29004l-1.70996,8.00977h.49512c2.47461-4.81543,5.62402-8.45996,9.67383-8.45996,3.50977,0,4.63477,2.61035,4.63477,5.89453,0,10.17041-7.10938,17.50537-15.07422,17.50537-.94434,0-1.88965-.08984-2.83496-.31543ZM125.75977,26.95068c1.30469.90039,2.56445,1.35059,3.73438,1.35059,5.75977,0,10.03418-8.73047,10.03418-14.67041,0-2.47461-.22461-4.85938-2.42969-4.85938-3.55469,0-8.14453,6.47949-11.33887,18.1792Z"/><path class="cls-1" d="M170.26367,19.79639c-1.97949,7.10938-5.93945,10.30469-8.59473,10.30469-1.70996,0-2.60938-1.08008-1.84473-4.5l.85449-3.95996h-.4043c-2.47559,4.81445-5.625,8.45996-9.6748,8.45996-3.50977,0-4.63477-2.61035-4.63477-5.89453,0-10.17041,7.10938-17.50537,15.07422-17.50537,1.84473,0,3.78027.40527,5.66992,1.25977l-4.22949,19.97998c2.38477-1.53027,4.0498-4.22949,5.39941-8.14453h2.38477ZM163.1543,9.85156c-1.30566-.90039-2.56543-1.35059-3.73535-1.35059-5.75977,0-10.03418,8.72949-10.03418,14.67041,0,2.47461.22461,4.85938,2.42969,4.85938,3.55469,0,8.14453-6.47949,11.33984-18.1792Z"/><path class="cls-1" d="M198.47852,19.79639c-1.98047,7.10938-5.94043,10.30469-8.59473,10.30469-1.70996,0-2.61035-1.08008-1.84473-4.5l2.9248-11.52002c.80957-3.24023.58496-5.1748-1.93555-5.1748-4.27441,0-9.71973,8.72998-12.28418,20.74463h-3.15039l4.32031-20.33936h-3.95996l.49512-2.16016h7.06445l-2.56445,9.85449h.4043c2.83496-6.07422,6.39062-10.30469,10.84473-10.30469,3.60059,0,5.08496,2.65527,3.91504,7.24512l-3.41992,13.99463c2.38477-1.5752,4.0498-4.27441,5.39941-8.14453h2.38574Z"/><path class="cls-1" d="M216.16309,9.31152h-6.83984l-4.00488,18.8999c2.96973-1.30566,5.40039-4.41016,6.79492-8.41504h2.38477c-1.97949,7.10938-6.83984,10.30469-9.94434,10.30469-1.70996,0-2.56445-1.08008-1.84473-4.5l3.46484-16.28955h-4.0498l.4502-2.16016h4.0498l1.43945-6.75h3.15039l-1.44043,6.75h6.83984l-.4502,2.16016Z"/><path class="cls-1" d="M237.85254,9.44629c0,1.5752-1.16992,2.83496-2.79004,2.83496-1.43945,0-2.60938-.94531-2.60938-2.42969,0-.18066,0-.36035.04492-.54004-3.87012,1.88965-7.1543,9.58447-9.85449,20.33936h-3.15039l4.32031-20.33936h-3.95996l.49512-2.16016h7.06445l-2.38477,9.26953h.36035c2.33984-5.66992,5.53418-9.71973,9.4043-9.71973,1.88965,0,3.05957,1.16992,3.05957,2.74512Z"/><path class="cls-1" d="M260.80273,11.96582c0,6.9751-8.82031,26.23486-19.39453,26.23486-3.24023,0-5.44434-1.7998-5.44434-4.5,0-2.02441,1.21484-3.24023,2.83496-3.24023,1.48438,0,2.56445,1.08008,2.56445,2.61035,0,1.43945-.99023,2.51953-2.42969,2.65527.4043.44922,1.03516.71973,1.97949.71973,1.75488,0,3.41992-.6748,5.04004-1.75488,1.70996-11.47461,1.39453-21.55518-.40527-25.73975-2.29492,1.5752-3.95996,4.22949-5.26465,8.05469h-2.38477c1.7998-6.70508,5.89453-10.30469,8.36914-10.30469,3.64551,0,5.58008,12.28467,2.47559,25.60498,5.44434-5.625,9.35938-15.39014,9.35938-19.57471,0-.22559,0-.49512-.04492-.7207-2.02539-.62988-3.15039-1.75488-3.15039-3.23926,0-1.35059.94531-2.07031,2.20508-2.07031,2.29492,0,3.69043,2.52051,3.69043,5.26465Z"/></svg>