<?xml version="1.0" encoding="UTF-8"?><svg id="Layer_1" xmlns="http://www.w3.org/2000/svg" viewBox="0 0 366.18604 266.5035"><defs><style>.cls-1{fill:#fffc00;}</style></defs><g id="h7IIgS"><path class="cls-1" d="M97.97975,23.62498c1.22488,1.2244,3.04391.65052,4.35387-.20375.65033-.4241,1.03803-1.2942,1.90041-1.73396,2.67266-1.36289,7.26644-1.39795,9.80732.25117,2.40606,1.56162,4.44192,5.23576,3.8983,8.16697-.21882,1.17989-1.41445,2.3-1.56562,3.05644-.77654,3.88579,3.54817,3.55201,6.0383,2.56659,1.42892.75093,4.23997.19014,5.37932.8731,2.36403,1.41709,1.32344,6.90401,1.26609,9.2874l3.00633,1.01484c.84017-.02135,1.52211-2.76635,4.26936-2.33454.19158.03011,1.65751.65178,1.74762.7371.12595.11925,2.08579,2.48793,2.16847,2.64038.92992,1.71463.65125,3.76552,1.42511,5.16746.27453.49735,3.58383,3.13565,4.00508,3.26425,2.87306.87709,4.94053-3.12785,8.17373-2.55601,2.06387.36502,2.97924,1.35739,3.17675,3.4313.26694,2.80282-.40938,4.60005-.65962,6.97202-.17711,1.6788-.45909,5.11905,1.31245,5.93067.48472.22207,2.63191-.35105,3.20375-.60433.49428-.21893,4.84135-3.73185,5.37993-4.35275.93596-1.07901,1.64068-3.05265,3.31872-3.61948.90489-.30567,3.44178-.32072,4.37657-.1107.78599.17659,3.96678,3.5918,4.52686,4.3939,1.65334,2.36779,1.58273,6.12492,3.75111,7.97606,1.50087,1.28129,4.38323,1.87853,6.23678,2.85061,1.426.74786,3.75938,2.83201,5.11978,3.14038,1.2176.276,2.6488-.10325,3.88034.08503.52157.07974.91374.55762,1.65171.66121,3.61509.50748,10.57795-.02422,14.1538-.75068,1.92203-.39047,5.07569-3.06397,6.95267-3.9508,6.91859-3.26887,18.27924-6.89922,25.81877-8.2149,2.87746-.50213,8.55907-2.01223,11.2344-1.61897.74683.10978,2.97831,1.23089,3.63388,1.27017,2.26773.13587,5.62934-.63973,7.61309-.65474.97473-.00738,2.1499.60032,2.98991.53771,3.46365-.25817,6.31449-2.40334,10.25047-1.84776,6.51688.91989,11.80112-.66377,18.18537-1.63723.92269-.14069,1.64722.55833,2.60552.67368,4.85508.58442,11.35596-1.10406,16.21893-1.64531,6.52454-.72619,13.62191-1.36363,20.06183-.26758,2.87937.49006,6.24129,3.36244,8.33929,5.20893,5.61796,4.94448,13.7715,11.78874,17.80876,18.20231.65711,1.04389,1.71321,3.24876.88939,4.37514-1.70587.6702-3.29523,2.42053-4.98606,3.01785-1.69893.60018-3.23645.25264-4.76941.51762-1.18173.20426-2.67366,1.40984-4.0128,1.60429-2.55731.37134-5.64391-.82462-7.72247,1.17987.25212.40436.46261.82153.80858,1.16226,3.25495,3.20551,9.18276,5.25625,11.91223,8.57378.46245.56208,2.59645,3.40173,2.71672,3.8907.54042,2.19714-.37538,1.08223,1.06707,2.88329.84641,1.05683,2.22526,2.78969,2.55596,4.06342.32313,1.24457-.62768,2.64682-1.54993,3.55837-.40018.39553-3.00627,2.16382-3.5263,2.41968-1.31572.64734-5.58662,1.38636-6.22306,2.03748-1.07921,1.10411-.62244,2.92392-.85281,4.1025-.5356,2.74008-1.42324,5.43129-2.13905,8.12168-.09375.35238.03495.62611.13693.9449-.83866,1.16832-7.55502.81746-8.88281-.1356-.76795-.55122-.90203-1.68679-1.63336-2.33123-4.99239-4.39919-8.65009-9.87062-13.4319-14.80612-4.02597-4.15537-8.14127-8.1127-12.53365-12.09116-3.28751-2.9777-5.487-6.69802-8.42429-10.07716-.78755-.90602-4.60257-5.07303-5.46905-5.13831-1.29459-.09754-2.59881,1.30642-2.78443,2.52798-.19098,1.25681,1.12369,3.40871,1.29732,4.60902.24921,1.72276-.13687,3.83176.00481,5.61087.3061,3.84355,2.26784,6.85252,3.22043,10.3244,2.11109,7.69418,1.8248,15.61149,3.08682,23.34099.84499,5.17531,2.23631,15.41364,1.64583,20.5077-1.4154,12.2105-2.13071,22.8692,4.10888,33.8604.86453,1.52289,2.70363,3.38538,3.40888,4.85067.92172,1.91503,1.52407,5.99099,2.49933,8.40257.76388,1.88886,3.08862,5.31714,3.45017,6.82192,1.60745,6.69022,3.12937,13.80152,4.00897,20.73696.68952,5.43672-1.90357,11.13321-4.80056,15.62717-1.85047,2.87053-2.40227,3.07247-4.91995,4.99189-1.33521,1.01793-1.74136,2.56489-2.89788,3.40058-.79368.5735-4.36382,3.01182-5.01211,3.22682-.43432.14404-3.38935.94862-3.57235.92505-.91202-.1175-3.12039-1.90347-3.56928-2.74745-.95797-1.8011-.32731-3.27829-.72579-4.89014-.19338-.78221-1.39486-1.82633-1.55772-2.73717-.60863-3.40408-.43934-6.77073-.661-10.24025-.24088-3.77045-1.81781-6.20743-2.63933-9.58395-.25152-1.03378.11734-2.29073-.43552-3.52864-.30818-.69005-1.06118-1.0364-1.31889-1.65458-1.10083-2.64073-2.37745-6.9057-2.90622-9.6475-1.29211-6.69995-3.69193-13.09965-5.50125-19.60607-.74292-2.67158-2.11229-5.66274-2.40804-8.1635-.25593-2.16406-.21548-4.69531-.74176-6.85619-.36837-1.51253-2.57041-7.11182-3.89509-7.6655-3.20162-1.33821-3.28902,2.28756-2.95256,4.60039.72358,4.97391,2.02456,10.43724,4.2282,14.93297,1.23637,2.52236,1.32838,5.03925,1.02529,7.8588-.0668.62146-.6235,1.14901-.65247,1.69906-.03749.71179.57442,1.07081.65538,1.63836.48748,3.41701-1.01404,6.14247-.66991,9.25637.64214,5.81042,1.51776,14.82674-.32371,20.44074-1.87055,5.70266-2.85602,11.41591-5.20943,16.92478-.4448,1.0412-2.51683,5.79165-3.00829,6.24212-.2648.24271-2.52246,1.7984-2.92598,2.03006-1.34267.77082-6.13593,2.95541-7.4966,3.07673-1.79096.15968-7.2038.23132-8.77971-.16919-2.21126-.56198-3.90662-3.0489-5.26487-4.70581l-.03011-23.72943c4.17302-15.8171,2.34246-32.30228,4.0003-48.52415.15551-1.52161.28364-5.48508-.83878-6.46446-2.51235-2.1922-5.66616.93885-8.3497,1.57354-2.2781.5388-5.25466.0222-7.10633.49387-.6542.16664-4.2735,1.94922-5.20505,2.39388-1.30429.62258-2.50763,1.98107-4.1422,2.14361-3.04313.3026-5.03776-1.21602-8.03144-1.78924-.48093-.09209-1.05583.21883-1.76289.06686-2.52981-.54375-6.57246-4.84742-9.18642-2.39392-.32744.30734-1.95461,4.10899-2.16329,4.77435-1.74911,5.57681-.62248,11.71407-.13872,17.33346.16032,1.86229-.59233,2.56944-.67189,3.67139-.05548.7684.59494,1.87003.66854,2.94013.59709,8.68089-.1261,18.10732-.17999,26.75539-.01804,2.89462,1.10047,8.00985-1.33572,10.41879-.30194.29857-.88346.27623-1.03152.43822-1.51355,1.65588-2.93575,3.27627-4.40634,5.01396-2.12595,2.51208-4.36838,2.65378-7.33089,3.57271-2.6448.82039-2.97522.50145-5.37441.90402-1.10253.185-1.00406.99234-2.80142.45286-3.2276-.96878-2.92539-4.61475-3.34451-7.22535-.77422-4.82237-1.35056-9.87503-2.04069-14.80706-.73357-5.24249-1.44597-9.88087-2.8027-15.03632-.69475-2.63997-.11479-5.33549-.41745-7.84105-.77784-6.4393-1.56591-12.99634-2.29711-19.50574-.32127-2.86-.25267-9.51056-2.00289-11.54125-.31718-.368-2.82225-2.59087-3.19327-2.75446-1.8803-.82903-5.17068-.81751-5.42339,1.75077-.35592,3.61726,1.1367,6.32488,1.68223,9.91457.07781.51198.64731.90926.64734,1.33535.00003.42106-.56035.82122-.64822,1.3345-.61199,3.5747-1.61345,7.84884-.64013,11.51747.28304,1.06686,1.15648,1.8643,1.30455,2.99026,1.20636,9.17386-1.49514,19.68883-.69514,28.77043.06146.69764.6768,1.22772.62064,1.56784-.3307,2.00267-1.50057,3.87608-2.15545,5.77896-1.13304,3.29227-2.32713,9.27392-5.49854,11.18035-4.47641,2.69092-13.11053,7.64173-18.25322,8.68062-2.97242.60047-4.35316.57953-6.26075-1.94509-2.18337-2.88961-1.03971-4.15889-1.49388-7.09533-1.45545-9.41036.48413-18.21885-.62631-28.11312-.86932-7.74592,4.44569-16.74462,3.29665-26.41872-.48776-4.10662-2.64152-13.38902-4.49544-16.97783-2.78463-5.39048-7.34549-9.57706-10.19617-14.91281-.48485-.90751-2.9382-5.85998-3.0697-6.51104-.75587-3.74232.56876-5.43863,1.15292-8.57117.79919-4.28568,1.90686-14.32388.99721-18.35326-.10527-.46631-1.92624-3.0632-2.38172-3.89547-2.89655-5.2928-5.74625-10.97214-8.98556-16.123-1.35015-2.14688-3.56096-3.78483-5.26581-5.63707-4.88147-5.30349-10.4182-10.51048-16.17624-15.2112-.40753-.3327-3.20346-2.34772-3.48551-2.4749-1.26038-.56832-2.83399.99057-3.87618,1.39357-1.93411.74789-6.71652,2.25658-8.09993,3.70781-2.33428,2.4487-4.31888,3.5496-7.0018,5.6405-2.05327,1.60019-4.15202,4.3723-6.28588,6.26903-4.30088,3.82293-6.34052,6.72163-9.56234,11.58247-1.16324,1.75502-2.02131,3.92633-3.34657,5.57349-1.3528,1.6814-3.3504,3.45442-4.76108,4.80597-3.99833,3.83073-8.4546,8.82155-14.5363,5.93741-.51951-.24637-.86959-1.0471-1.57351-1.40005-1.25387-.62869-3.36067-.83433-4.69513-1.58287-4.92291-2.76144-6.58509-7.66746-8.49493-12.64944-1.31158-3.42137-2.21962-6.77705-3.25949-10.28535-.53953-1.82026-1.14125-3.8073-.74975-5.7054.22884-1.10948,1.24384-1.73287,1.49645-2.46763,2.00046-5.81858,3.09837-9.3111,5.8277-14.9854,2.09197-4.34923,4.06009-7.79423,5.5863-12.25371,2.9259-8.5493,7.53962-16.20675,11.93399-23.74653,3.1035-5.32493-4.20458-3.3557-7.56888-3.60805-1.50827-.11313-5.65454-.78408-6.85988-1.40089-.51989-.26604-3.20851-2.16194-3.37798-2.56703-1.05338-2.51797,1.38231-5.18586,2.37427-7.19015,2.57443-5.20178,5.19448-11.0503,11.39959-12.38602,2.17588-.46838.90048-.1372,2.72333.11354,1.69915.23372,2.40751-.63911,3.35022-.68976.65715-.03531,1.14378.57536,1.93577.68756,1.41419.20034,5.67306.11619,6.9234-.38187.83665-.33327,1.81989-.92223,1.36041-1.93659-.06447-.14233-1.56508-2.52596-1.67107-2.64078-.51287-.55559-1.29327-.47952-1.74249-1.23113-.52952-.88597-.87483-2.89908-1.31926-3.96655-1.32015-3.1709-2.8804-5.67181-2.03346-9.44395.05228-.23285.50382-.26828.60936-.50992.64473-1.47623,1.81642-4.53623,3.0307-5.48981.89891-.70593,4.50162-1.2823,5.69043-1.09694,2.31692.36126,9.22952,1.83154,10.94432,3.26074.7904.65876,1.03679,1.26784,2.33911,2.28639,2.89996,2.26806,7.11485,5.57256,10.44941,7.06198,2.94344,1.31472,6.25573,2.43286,9.23174,3.32421,2.17289.65081,3.2593,2.93477,6.0381,2.0903.5487-.16675.7617-.8199,1.24262-1.06758.99513-.51252,2.32261-.43531,3.51792-1.10798,1.55718-.87632,2.9306-3.05665,4.41199-4.17825.65524-.49609,3.05098-1.90921,3.69581-1.78514,2.57768.49596,4.583,3.625,5.27961,5.98552.6749,2.28695-.47767,6.20786,1.03479,7.71973ZM50.50857,9.63917c-1.34064-1.04384-4.2766-1.3838-6.02855-2.06894-1.55692-.60887-1.69374-1.74685-3.8601-1.24518-1.61065.37298-2.3378,1.85413-2.54917,3.39706-.74589,5.4448.41587,5.61436,3.47849,8.86137.26508.28104.23883.816.81004,1.34639.30808.28606,4.91055,2.33204,5.86841,2.79345,1.76545.85043,4.01706.76096,4.54957,2.97602.54635,2.27261-.74647,3.7519-2.83199,4.48183-2.59884.90959-5.76772,1.25052-8.27494,1.96834-.75439.21598-1.81436,1.18576-2.81564,1.4797-.71035.20853-4.39745,1.02575-4.94444,1.04548-.24593.00887-4.28657-.71808-4.80495-.83416-1.03146-.23098-2.24533-1.36651-3.14642-1.50381-.59541-.09072-5.31069,1.70551-5.66265,2.06483-1.34906,1.37728-2.45314,3.50068-3.08709,5.27814-.10626.29793-.57236.2462-.62874.47777-.9383,3.85388,3.74955,3.92446,6.36675,3.33565.2672-.06011,4.63485-2.07218,4.97082-2.30055,1.53813-1.0455,2.26035-1.48744,3.84103-2.43273,1.8618-1.11342,2.29369-3.21895,5.31516-2.31362,2.14768.64352,2.45639,2.27504,3.63404,3.9775.00012.66023-3.08804,4.19574-3.5961,5.00709-2.61364,4.17392-4.37301,8.72661-6.86706,12.95797-.84588,1.43511-2.70644,2.9824-3.7077,4.54937-2.72361,4.26245-3.61969,8.71441-5.71186,13.11933-3.00786,6.33284-6.95591,12.62038-9.83599,18.90654-.64759,1.41345-.42016,2.65979-.79182,3.83313-1.61662,5.10369-3.04011,6.9968-2.55997,12.9905.21252,2.65296,1.12705,3.34498,1.8401,5.43276.71158,2.0835,1.00427,4.50704,1.91204,6.67244,1.12062,2.67316,3.45724,5.42486,5.88179,7.00331,1.27067.82724,2.88754.99441,4.1753,1.80624l.82253-.00822c2.3623-.92631,3.7955-2.04971,5.75414-3.524.47979-.36115,1.27536-.45239,1.66794-.81231.17155-.15728,2.37658-3.1871,2.7401-3.70094,1.69926-2.40194,11.60808-18.11244,12.65027-18.55482,3.32008-1.40926,7.9163-4.99916,10.81825-7.53505,1.64049-1.43356,3.12397-3.45102,4.78735-4.79403,2.61388-2.11045,9.27738-5.30782,12.57512-5.93073.44261-.0836,3.94103-.38795,4.25927-.32967,1.04093.82884,3.03042.5122,3.92256,1.28279.45808.39567.82876,2.34966,2.1949,3.50451,7.80684,6.59941,16.94066,12.6341,22.68533,21.41987,3.17109,4.84981,4.99464,10.64948,8.39009,15.57725,1.39653,2.02676,3.83698,2.85038,4.80466,6.08263.65826,2.19874-.39543,2.89136-.75977,4.55299-.97621,4.45215-.46575,7.76251-.72877,12.15417-.15129,2.52603-.99706,5.82874-.96681,8.612.01658,1.525,3.4928,10.30687,4.41975,11.05177,2.78218,2.23578,4.79077,4.93374,6.57079,8.28329,2.42387,4.56112,4.65618,11.60401,5.41031,16.72397.98342,6.67667.02234,17.3268-.97882,23.95417-1.61077,10.66282-.94259,21.94914-.58713,32.77693.05316,1.61921-1.13585,2.11194.48231,3.81195,1.844,1.93727,4.0599,1.26197,6.22135.24653,1.12573-.52886,2.6862-1.38345,3.93877-2.00862,1.85847-.92758,3.64628-1.95922,5.45378-2.96893.1299-.5484.93942-1.39202.99753-1.77046.17437-1.13555-.08611-1.94345.52347-3.4834,3.48873-8.8134,2.26223-16.54864,3.21712-25.85366.40108-3.90834,1.08961-8.12654.6552-12.24857-.08749-.83017-.65122-1.44771-.68002-2.00112-.03666-.70438.55824-1.05823.65451-1.63767.45681-2.74952-1.25892-7.15028-1.61877-9.91262-.3466-2.66067.33747-5.98406.00793-8.59277-.07982-.63187-.63315-.31475-.71297-.94663-.19637-1.55453-.18857-6.73627.04734-8.25924.10628-.68608.8689-2.16963,1.44388-2.52063.39079-.23856,5.58829-1.62125,5.88991-1.57687.63564.09351,1.50475.88071,2.22974,1.10123,6.6997,2.03785,10.36569,3.34815,12.45161,10.67637,1.95091,6.85389.96409,14.69058,2.49968,21.61558.25567,1.153,1.10246,2.48741,1.2489,3.70655.482,4.01277-.48056,8.26717.41531,12.46786,1.06876,5.01141,2.30311,8.68061,2.86117,13.98687.47143,4.4826.84267,6.31938,1.92367,10.6297.488,1.94582-.32644,4.55165,2.89467,4.41657,1.47516-.06186,6.24708-2.67747,7.041-3.88808,2.54351-3.87848,3.33093-9.17162,4.22617-13.61335,1.484-7.36282.17492-10.45659-.21938-17.36937-.21454-3.76126-.53463-8.83562-.00647-12.25591.98772-6.39623,1.429-9.51078.16544-15.97911-.51401-2.63132,1.09614-7.0802,1.49066-9.7833.15246-1.04458-.1242-2.13734.09082-3.21255,1.05347-5.26787,6.25421-1.0483,9.00843.09506,2.87512,1.19355,7.93035,2.5596,11.01284,3.19239,5.09591,1.04612,5.16724-1.27542,8.84252-2.1819,4.80537-1.18521,9.96383-1.00429,14.49494-2.35721,3.77387-1.12682,7.26118-3.91652,11.39008-1.43467,1.70811,1.02673.88034,1.48352,1.18738,2.44137,2.2036,6.87446.13399,15.65303.17992,22.95002.06605,10.49469-1.78279,21.37762-2.9698,31.74381-.42349,3.69831-1.06376,6.2379-1.61023,9.62748-.04886.30309,1.1725,5.08951,1.24333,5.89806.29998,3.4245-1.53038,12.18233,3.80016,11.36188.6161-.09483,1.18965-.6494,1.67176-.63289.42385.01451.907.5818,1.6395.67361,2.73395.34267,3.52939-1.88821,4.91991-3.54098.3711-.44109,1.402-.77653,1.6925-1.44711.27478-.63429.07902-1.36145.32897-1.98264,2.33601-5.80559,3.94902-10.88472,5.4994-16.96525.23985-.94067,1.12406-2.20093,1.26357-3.03122,1.10277-6.56316-1.32647-13.27239-.6579-19.81704.34482-3.37549.66667-2.5927.03239-6.27322-.64602-3.74869-.56855-8.08926-1.763-11.78129-1.19627-3.69767-1.85337-5.75178-2.5131-9.71014-.45798-2.74788-1.3562-5.83606-1.04943-8.5778.06432-.57481.77137-3.231.99466-3.63056,1.50369-2.69076,9.09204-3.6557,11.55938-2.2652,3.39083,1.91094,5.76813,6.21156,6.73216,9.78692,1.25465,4.65321,2.17068,10.29662,3.35361,15.14628,1.71134,7.016,3.51127,13.87354,5.15898,20.93923,1.32113,5.66526,4.54587,10.795,6.10884,16.35602,1.48679,5.28995,1.54955,10.67831,2.50681,15.99278.41127,2.28329.66095,5.05763,2.76009,6.40029.85556-.8517,1.95383-.29924,2.8494-1.04076.53945-.44666.63161-1.3302,1.10056-1.87287,1.44644-1.67382,3.13131-3.12055,4.2962-5.285,4.85086-9.0133,2.24275-22.54512-1.48939-31.43853-1.47544-3.51588-1.8158-5.91396-2.76224-9.4926-.75272-2.84614-5.79193-8.95494-7.42243-12.09906-4.16776-8.03676-3.69222-21.49295-2.66758-30.34618.76747-6.6312-.78167-14.17013-1.01527-20.8077-.16387-4.65628.54819-10.45549.02406-14.88908-.71182-6.02125-4.97424-12.77547-5.31138-18.47454-.44717-7.55903-1.25005-14.99519-2.31517-22.45786-.26106-1.82908.32988-2.52837.65838-4.00087.24631-1.1041-.21748-2.84052,1.57385-3.38245,3.20321-.96906,5.35446,4.27756,8.54324,4.86717,4.48019.8284,6.6326,2.16155,10.1697,4.86474.5025.38403,1.67078.53538,2.17866.96119,1.62856,1.3654.36972.93386,3.06687,2.21903,8.65923,4.12603,12.26323,9.94038,18.42716,16.59371l8.27535,10.88696c1.04193-.12333,2.11304.70371,2.81999.8142,2.41723.37779,6.69484-.65561,8.37293-2.49669.5169-.56711.98482-1.04335.96211-1.8454-.04469-1.57854-1.06156-4.02066-2.24563-5.05669-3.22183-2.819-8.44635-5.63711-12.06137-8.42359-1.23205-.94967-3.53296-3.59777-4.71504-4.27762-1.74509-1.00365-3.94873-1.86016-5.91376-2.93536-6.58479-3.60298-11.23695-6.49929-16.47348-11.94105-3.13178-3.25451-3.8177-4.03367-7.40458-6.8024-.6841-.52806-1.80716-2.08211-2.52315-2.13984-1.22823.25346-3.08354,1.29849-4.26712,1.35006-3.23256.14084-5.64313-1.91139-8.27591-2.01972-1.11051-.04569-1.87629.11232-3.31747.04538-8.71593-.40482-17.68876.80334-26.10681.00111-10.79662-1.02891-17.27378.76417-27.24239,4.11233-7.44909,2.50193-14.25946,6.98006-22.05997,8.66888-1.98661.4301-6.35484,1.34809-8.18343,1.43216-.39937.01836-4.16307-.56056-4.96924-.66983-6.29132-.85268-12.63551-4.22357-18.78722-5.66421-1.29446-1.34382-4.68711-2.24089-5.67082-3.58044-1.8928-2.5775.03439-5.65329-3.67336-6.91685l-6.39438,4.39044c-5.51245,3.00568-8.60547,5.03757-15.09006,3.61871-.78925-.17269-1.43093.44057-2.22575-.80753-2.44734-3.84301,1.32601-6.22148,1.78975-9.75285.2787-2.12228-2.07062-4.00735-3.87361-4.67889-2.56317-.95468-5.16328-1.99431-7.51836-3.71575-1.82608-1.33476-3.08208-4.26457-6.03178-3.05035-1.43221.88547-6.1015,4.2315-7.48469,4.04636-1.4847-.19873-3.39566-2.42663-3.38346-3.80158.00282-.31722.44078-.81928.51233-1.34959.36339-2.69326,1.37685-6.37595,1.03613-8.90723-.28372-2.10782-3.38186-2.42171-5.11941-2.11049-.70474.12623-1.43906.72981-2.41797.88473-1.72099.27236-5.18976.34504-6.36633-1.06209-.51059-.61064-1.71634-3.87364-1.64316-4.6008.03894-.38696,1.65676-5.25699,1.91225-5.7202.46359-.8405,1.43786-1.34679,1.65485-2.31195.25432-1.1312-.07245-2.5498-.57238-3.58719-1.29078-.58575-2.16135.72126-3.1952,1.1469-1.13307.46649-2.53643.77731-3.61394,1.34233-2.58083,1.35332-3.63795,3.95823-6.51822,5.70641-5.74459,3.48667-7.63082-1.74099-6.8328-6.83038.23063-1.47083,1.4672-3.19806,1.62709-4.97721.18793-2.09129.21692-4.0662-2.17203-4.44594-2.59342-.41225-5.42107,5.07874-8.58797,5.27417-.78113.0482-1.28725-.56896-1.9739-.64223-1.64028-.17501-2.853.11824-4.58776-.36802-1.27401-.35711-2.27833-1.48694-3.00124-1.62449-2.22076-.42256-6.72524.81257-8.42572-1.24906-.77895-.94439-.97403-3.20517-1.73427-3.95498-.97252-.95917-4.09228-2.04031-5.30654-2.78859-1.99806-1.2313-3.37226-2.90684-4.94913-4.13461ZM347.11452,74.51818c-.18988-.21177-.15742-.80768-.41277-1.05656-1.02182-.99594-5.67095-5.28007-6.63367-5.60542-1.38277-.46731-3.2584-.04699-4.75849-.19834-7.60997-.76782-12.80457.00854-20.251,1.59455-1.20347.25633-2.84814-.18389-3.90347.72057-1.69669,1.45414,1.33603,2.30275,1.98328,3.00134,2.33265,2.51766,1.3666,1.32966,4.16448,2.774,4.56788,2.35807,9.1926,5.158,13.76684,7.69351,1.65354.91656,6.17356,4.09903,7.71465,4.52664,1.05659.29318,9.22495,1.30283,10.03971,1.16194.53981-.09334.91218-.55724,1.65093-.66048,2.56606-.35857,5.68247.76305,7.70915-1.79211-.6582-.67463-.50438-1.57997-.89274-2.34468-1.18942-2.34206-6.56373-6.97341-8.77843-9.06439-.42478-.40105-1.14075-.46313-1.39849-.75058ZM317.75338,99.58716c-1.51562-1.65382-.95345-.81974-2.67839-1.79167-1.0661-.60071-3.54464-3.11932-4.34195-.81397-.41767,1.20765.36881.96906.5898,1.32663,2.74206,4.43683,6.48032,7.03869,10.10585,10.64356,4.1335,4.10995,8.36364,8.44672,12.53071,12.5791,1.87136,1.85579,3.85541,5.53428,6.2701,7.2758.58154.41941,1.94019.60273,2.65682,1.30154.82353-.51328.21452-1.06379.17306-1.82498-.02031-.37281.34373-.96477.18884-1.1674-.20819-.27235-1.09886-.38351-1.54262-.77599-.57094-.50496-.59943-1.31863-1.11849-1.85465-2.08219-2.15022-2.79185-2.06961-4.78877-4.79377-1.53437-2.09316-4.38665-4.27565-6.05675-6.51734-2.27896-3.05894-3.5683-6.46635-6.34495-9.16257-1.54736-1.50253-4.40249-3.07038-5.64326-4.42428Z"/><path class="cls-1" d="M57.7688,78.13889c-.22284.19207-.73172.19464-1.04241.42856-1.90536,1.43459-8.61561,4.79579-10.88509,4.63578-.18159-.0128-3.21125-.71449-3.51285-.80877-1.76292-.55108-3.49797-5.80164-3.63065-7.60196-.12351-1.67586-.1948-5.31294.08918-6.87601.13331-.73377,2.05286-4.172,2.56172-4.70754,1.60414-1.68823,7.51213-2.11542,9.66342-1.38713,1.01839.34476,4.09602,3.32303,4.61988,4.30082.7972,1.48799.94951,4.06711,1.77208,5.82623.27687.5921,1.18939,1.17428,1.38323,1.91811.33876,1.29993.02302,3.37419-1.01851,4.27192ZM50.17615,74.51129c.17195-.16985.78076-1.70555.76855-2.01661-.08954-2.28089-3.99456-2.35647-4.30237-.68993-.1798.97348.07001,2.38548.04291,3.4233.42827.6872,3.09453-.3252,3.49091-.71676Z"/></g></svg>